<svg xmlns="http://www.w3.org/2000/svg" viewBox="0 0 401.86 401.86"><defs><style>.cls-1{fill:none;}.cls-2{fill:#376b9e;}.cls-3{fill:#65a6d1;}.cls-3,.cls-4{fill-rule:evenodd;}.cls-4{fill:#528fc1;}.cls-5{fill:#fcebec;}</style></defs><title>Asset 1</title><g id="Layer_2" data-name="Layer 2"><g id="OBJECTS"><circle class="cls-1" cx="200.93" cy="200.93" r="200.93"/><circle class="cls-2" cx="200.93" cy="202.91" r="161.64"/><path class="cls-3" d="M161.61,157.29c16.58-41.7,51.12-54.65,77.14-53.87,107.37,3.2,137.55,156.2,23.09,256-18.66,16.27-56.81-9.88-82.4-48-19.58-29.15-28.57-66.33-35.23-90.62C128.83,164.77,161.61,157.29,161.61,157.29Z"/><path class="cls-3" d="M179.86,150c-40.83-18.63-74.72-4.09-93,14.48-75.3,76.61,8.79,208,160.47,200.79,24.73-1.17,34.17-46.45,26.28-91.66-6-34.59-25.27-67.65-37.27-89.8C208.7,132.68,179.86,150,179.86,150Z"/><path class="cls-4" d="M172.25,181.56c14.7-37,45.31-48.44,68.37-47.76,95.17,2.84,121.91,138.45,20.47,226.89-16.54,14.42-50.36-8.76-73-42.52-17.35-25.84-25.31-58.79-31.22-80.32C143.2,188.18,172.25,181.56,172.25,181.56Z"/><path class="cls-4" d="M188.43,175.06c-36.19-16.52-66.23-3.62-82.4,12.83-66.74,67.9,7.78,184.31,142.22,178,21.92-1,30.29-41.17,23.3-81.24-5.35-30.65-22.41-60-33-79.59C214,159.74,188.43,175.06,188.43,175.06Z"/><path class="cls-5" d="M196.17,214.65c7.38,2.51-1,5.44,3.48,7.11s3.48.83,3.14,2.64-2.44,2.09,1.6,4.67,2.85,6.48,2.71,9c-.1,1.91,3,3.58,7.53,3.36a19.83,19.83,0,0,0,4.59-.79c7-2,17.69-12.6,22.71-8.43,6.65,5.55,9.53,10.68,10.11,15.73a27.45,27.45,0,0,1,5.91-.21,12.66,12.66,0,0,1,2.45.41c1.75.48,3.12,1.34,3.52,2.48s-.06,2.28-1.69,3.73c-.44.39-.88.78-1.33,1.16-5.44,4.75-10.85,9.31-13.42,16.14a21,21,0,0,0-.69,2.12c-.86,3.18-1.42,5.65-2.12,8.06A49.83,49.83,0,0,0,261.36,274c9.11-6.43,17.87-16.71,19.57-31.32.23-2,.39-3.94.5-5.85-3-6.08-6.43-12.92-10.18-20.27-6.1-11.95-11.45-16-17.31-17.59-7.53-2.05-15.92-.05-27.82-5.53-15.49-7.14-24.66-16.87-27.54-26a20.58,20.58,0,0,1-1-5.12c-4.21,6-7.38,12.08-4.24,20.43,3.21,8.5,7.11,12.82,2,20.9S188.79,212.15,196.17,214.65Z"/><path class="cls-5" d="M255.22,255.67c1.61-1.26,3.35-2.33,4.85-3.73l.17-.17a.56.56,0,0,0,.15-.34c0-.29-.26-.49-.51-.62a6.72,6.72,0,0,0-2.51-.84,9.57,9.57,0,0,0-3.68.43,23.9,23.9,0,0,0-8,4.85c-3.81,3.17-6.4,7.48-9.11,11.56-2.86,4.32-6.43,7.74-9.6,11.78-1.09,1.39-2.25,2.76-3.24,4.2s-1.65,3.33-3.26,3.88a3.83,3.83,0,0,1-2.49-.19c-2.63-1-4.28-3.18-6.61-4.6-4.55-2.78-9.17-5.47-13.72-8.25s-9.08-5.65-14.27-6.92a11.63,11.63,0,0,0-6.22-.09,5.75,5.75,0,0,0-4.1,4.35,8.21,8.21,0,0,0,.78,4.11,39.52,39.52,0,0,0,46.26,23.79c7.37-1.78,12.85-4.9,16.57-11.62a44,44,0,0,0,2.45-5.34c.68-1.78,1.32-3.7,1.94-5.73.18-.61.37-1.22.55-1.85a30.87,30.87,0,0,1,7.8-13.64A56.35,56.35,0,0,1,255.22,255.67Z"/><path class="cls-5" d="M270.91,286.16a70.8,70.8,0,0,0-11.26,11.63c-2.43,3-4.75,6.29-7,9.57-3.52,5.11-6.9,10.32-10.29,15.11a127.55,127.55,0,0,1-28.7,28.41s-.28-14.76-10-26.46c-5-6-14-16.5-22-26.47-1-1.25-2-2.5-3-3.73-2.41-3.06-4.66-6-6.62-8.69a62.68,62.68,0,0,1-6.48-10.28,49.18,49.18,0,0,1-2.27-6.67c-.42-1.53-.78-3-1.14-4.56a61.61,61.61,0,0,0-5.51-15.8c-.35-.67-.69-1.3-1-1.89a19.32,19.32,0,0,0,7.28,2.73l.86.45a30.86,30.86,0,0,0,4.19,4.4,40,40,0,0,0,8.06,5.61c7,3.66,17.7,5.81,11.75.75-5-4.23-.65-4.38,2-6.75,1.2-.32,2.38-.66,3.49-1,6.69-1.95,5.37-7.73,3.9-12s.63-3,.35-4.74-3.76-1.25-3.76-1.25a23.5,23.5,0,0,0,.49-3.9c0-1.6-2.44-2.3-2.44-2.3a21.9,21.9,0,0,0,.63-4.94c.14-3.35-3.48-.7-7.8-1.67-3.24-.74-6.8-6.58-10.14-13.16a12.09,12.09,0,0,0-3.84-4.76c-7.61-5-15.88,11.52-7.68,18.82a9.32,9.32,0,0,1,3.18,5c-.17,1.43-.31,2.87-.43,4.33a12.87,12.87,0,0,1-3.45,4.65s-3.9-1.67-5.92-2.3c-1.86-.58-4.91.75-4.38,5.9a24.33,24.33,0,0,0-3.28-3.81c-1.25-1.53-2.65.42-1.39,6.83s2.09,7.8,2.09,7.8-11.15-8.64-15.05-17.83-4.87-13.1-7.1-11.84-2.79,15.88.7,25.77c1.43,4.08,5.61,9.95,10,15.45,6.3,7.84,13.09,14.91,13.09,14.91s18.11,63.24,35.38,85.81c5.71,7.46,10.54,12.42,14.64,15.66,8.31,6.56,13.67,6.07,17.4,4.95,24.55-7.36,45.81-23.17,60.37-40.46,10.42-12.38,17.39-25.5,19.67-36.84.11-.57.22-1.12.31-1.68s.2-1.23.27-1.84C301.34,284.42,290.76,270.46,270.91,286.16Z"/></g></g></svg>